<?xml version="1.0" encoding="utf-8"?>
<!-- Generator: Adobe Illustrator 24.0.1, SVG Export Plug-In . SVG Version: 6.00 Build 0)  -->
<svg version="1.1" id="Layer_1" xmlns="http://www.w3.org/2000/svg" xmlns:xlink="http://www.w3.org/1999/xlink" x="0px" y="0px"
	 viewBox="0 0 448.5 447.5" style="enable-background:new 0 0 448.5 447.5;" xml:space="preserve">
<style type="text/css">
	.st0{opacity:0.6;}
	.st1{fill:#0006FF;}
	.st2{fill:#FF0018;}
</style>
<title>leap-logo</title>
<g id="Rectangle_2" class="st0">
	<g id="Rectangle_2-2">
		<path class="st1" d="M1.2,307.6V398c0,27.3,22.2,49.5,49.6,49.4l257.2-0.2c13.1,0,25.6-5.2,34.9-14.4l90.8-90.1
			c31.4-31.1,9.3-84.5-34.9-84.5H50.8C23.4,258.2,1.2,280.3,1.2,307.6z"/>
	</g>
</g>
<g id="Rectangle_2-3" class="st0">
	<g id="Rectangle_2-4">
		<path class="st2" d="M0,140.3L0.7,398c0.1,27.3,22.2,49.3,49.5,49.3H141c27.4,0,49.5-22.1,49.5-49.4V49.5
			c0-44-53.2-66.1-84.5-35.1l-91.4,90.7C5.3,114.5,0,127.1,0,140.3z"/>
	</g>
</g>
</svg>
