<?xml version="1.0" encoding="UTF-8"?>
<svg id="Layer_1" data-name="Layer 1" xmlns="http://www.w3.org/2000/svg" viewBox="0 0 1892.7 1458">
  <defs>
    <style>
      .cls-1 {
        fill: #00607e;
      }

      .cls-1, .cls-2 {
        fill-rule: evenodd;
        stroke: #fff;
        stroke-linejoin: round;
        stroke-width: 30px;
      }

      .cls-2 {
        fill: #00b0f0;
      }
    </style>
  </defs>
  <path class="cls-1" d="M1309.37,1397.74l184.67-312.68h333.58c38.71,0,62.74,42.1,43.05,75.43l-137.83,233.37c-17.99,30.46-50.73,49.15-86.1,49.15h-311.54c-23.23,0-37.64-25.26-25.83-45.26Z"/>
  <path class="cls-1" d="M15,729L407.67,64.15c17.99-30.46,50.73-49.15,86.1-49.15h313.3c23.23,0,37.64,25.26,25.83,45.26l-394.97,668.74H15Z"/>
  <path class="cls-2" d="M482.99,90.44l376.93,638.2h422.72L890.19,64.16c-17.99-30.46-50.73-49.15-86.1-49.15h-278.04c-38.71,0-62.74,42.1-43.05,75.43Z"/>
  <path class="cls-2" d="M859.83,729l392.67,664.85c17.99,30.46,50.73,49.15,86.1,49.15h278.26c38.71,0,62.74-42.1,43.05-75.43l-377.15-638.57h-422.94Z"/>
  <path class="cls-1" d="M1458.59,338.66l-133.82-243.93c-18.62-33.94-67.08-34.76-86.84-1.47l-378.1,637.21h0s-394.24,667.27-394.24,667.27c-11.82,20,2.6,45.26,25.83,45.26h313.08c35.37,0,68.1-18.68,86.1-49.13l233.02-394.39,333.29-561.69c18.05-30.42,18.69-68.12,1.67-99.13Z"/>
  <path class="cls-2" d="M15,729l392.67,664.85c17.99,30.46,50.73,49.15,86.1,49.15h278.26c38.71,0,62.74-42.1,43.05-75.43l-377.15-638.57H15Z"/>
</svg>