<?xml version="1.0" encoding="UTF-8"?>
<svg id="Layer_1" xmlns="http://www.w3.org/2000/svg" version="1.1" viewBox="0 0 1892.7 1892.7">
  <!-- Generator: Adobe Illustrator 29.7.1, SVG Export Plug-In . SVG Version: 2.1.1 Build 8)  -->
  <defs>
    <style>
      .st0, .st1, .st2 {
        fill: #fff;
        fill-rule: evenodd;
        stroke: #fff;
        stroke-width: 30px;
      }

      .st0, .st2 {
        stroke-linejoin: round;
      }

      .st1 {
        stroke-miterlimit: 10;
      }

      .st2 {
        opacity: .8;
      }
    </style>
  </defs>
  <path class="st2" d="M1309.37,1615.09l184.67-312.68h333.58c38.71,0,62.74,42.1,43.05,75.43l-137.83,233.37c-17.99,30.46-50.73,49.15-86.1,49.15h-311.54c-23.23,0-37.64-25.26-25.83-45.26Z"/>
  <path class="st2" d="M15,946.35L407.67,281.5c17.99-30.46,50.73-49.15,86.1-49.15h313.3c23.23,0,37.64,25.26,25.83,45.26l-394.97,668.74H15Z"/>
  <path class="st1" d="M1659.55,1583.84l-377.15-638.57h-.2l-392.02-663.75c-17.99-30.46-50.73-49.15-86.1-49.15h-278.04c-38.71,0-62.74,42.1-43.05,75.43l376.5,637.47h-.02l392.67,664.85c17.99,30.46,50.73,49.15,86.1,49.15h278.26c38.71,0,62.74-42.1,43.05-75.43Z"/>
  <path class="st2" d="M1458.59,556.01l-133.82-243.93c-18.62-33.94-67.08-34.76-86.84-1.47l-378.1,637.21h0s-394.24,667.27-394.24,667.27c-11.82,20,2.6,45.26,25.83,45.26h313.08c35.37,0,68.1-18.68,86.1-49.13l233.02-394.39,333.29-561.69c18.05-30.42,18.69-68.12,1.67-99.13Z"/>
  <path class="st0" d="M15,946.35l392.67,664.85c17.99,30.46,50.73,49.15,86.1,49.15h278.26c38.71,0,62.74-42.1,43.05-75.43l-377.15-638.57H15Z"/>
</svg>