<svg xmlns="http://www.w3.org/2000/svg" width="864" height="864" viewBox="0 0 864 864">
  <defs>
    <style>
      .cls-1 {
        fill: none;
      }

      .cls-1, .cls-2 {
        stroke: #0747a6;
        stroke-width: 50px;
        fill-rule: evenodd;
      }

      .cls-2 {
        fill: #0747a6;
        fill-opacity: 0.6;
      }
    </style>
  </defs>
  <path class="cls-1" d="M404.364,32h149.1c51.465,0,73.071,31.116,48.258,69.5L309.688,553.25C297.281,572.442,266.364,588,240.631,588H91.534c-51.465,0-73.071-31.116-48.258-69.5L335.308,66.75C347.714,47.558,378.632,32,404.364,32Z"/>
  <path class="cls-2" d="M623.364,276h149.1c51.465,0,73.071,31.116,48.258,69.5L528.688,797.25C516.281,816.442,485.364,832,459.631,832h-149.1c-51.465,0-73.07-31.116-48.257-69.5L554.308,310.75C566.714,291.558,597.632,276,623.364,276Z"/>
</svg>
